<svg width="32" height="32" viewBox="0 0 32 32" fill="none" xmlns="http://www.w3.org/2000/svg">
<g id="fi_13980429" clip-path="url(#clip0_59_745)">
<g id="Group">
<path id="Vector" d="M16.0002 0.317383C24.6608 0.317383 31.6811 7.33772 31.6811 15.9984C31.6811 24.6576 24.6608 31.678 16.0002 31.678C7.33956 31.678 0.319336 24.6577 0.319336 15.9985C0.319336 7.33772 7.33956 0.317383 16.0002 0.317383Z" fill="#D6D4D1"/>
<g id="Group_2">
<g id="Group_3">
<g id="Clip path group">
<mask id="mask0_59_745" style="mask-type:luminance" maskUnits="userSpaceOnUse" x="0" y="0" width="32" height="32">
<g id="SVGID_2_">
<path id="SVGID_1_" d="M16.0002 0.69873C24.45 0.69873 31.2989 7.54826 31.2989 15.9982C31.2989 24.4468 24.45 31.2971 16.0002 31.2971C7.55034 31.2971 0.700806 24.4468 0.700806 15.9982C0.700806 7.54826 7.55045 0.69873 16.0002 0.69873Z" fill="white"/>
</g>
</mask>
<g mask="url(#mask0_59_745)">
<g id="Group_4">
<g id="Group_5">
<path id="Vector_2" d="M-6.94006 0.701172H38.9555V31.2982H-6.94006V0.701172Z" fill="#026C34"/>
<g id="Group_6">
<path id="Vector_3" d="M4.04554 11.223C4.04554 11.223 4.32359 10.8304 4.32359 10.4594C4.32359 10.0865 4.0969 10.1491 4.01201 10.211C3.927 10.2756 3.75834 10.4416 3.84595 10.5431C3.93095 10.6439 4.02386 10.4659 4.08381 10.4659C4.14308 10.4659 4.15888 10.4969 4.15888 10.6538C4.15888 10.8099 4.04554 11.223 4.04554 11.223Z" fill="white"/>
<path id="Vector_4" d="M3.37747 11.2974C3.37747 11.2974 3.39531 13.2211 3.81627 13.2211C3.81627 13.2211 4.00277 13.2211 4.05549 12.7217C4.11081 12.2224 4.3262 10.9733 4.85126 10.9733C5.37631 10.9733 4.58833 11.9839 5.00479 12.8687C5.00479 12.8687 5.15629 13.1968 5.44088 13.1968C5.44088 13.1968 5.37033 11.8614 5.28013 11.416C5.19117 10.9681 5.24129 10.9681 5.24129 10.9681C5.24129 10.9681 5.03899 10.7223 5.1695 10.501C5.30192 10.2796 5.36649 10.1932 5.48965 10.3863C5.6083 10.5807 6.04112 11.1933 5.64578 11.4035L5.80913 13.1362C5.80913 13.1362 6.22356 12.8746 6.12342 12.3937C6.02397 11.9107 5.81309 11.1973 6.06675 10.8204C6.06675 10.8204 6.41062 11.0432 6.41062 11.3864C6.41062 11.7302 6.38364 13.0973 7.07464 13.0973C7.76248 13.0973 6.90598 11.5643 6.90598 11.2888C6.90598 11.2888 6.87369 11.2131 7.0384 11.0391C7.20311 10.8651 7.22286 10.7993 7.34874 10.9311C7.47258 11.0635 7.70186 11.2928 7.70186 11.5181C7.70186 11.7434 7.50882 11.6478 7.50882 11.6478C7.50882 11.6478 7.74148 12.3857 7.74148 12.8784C7.74148 13.3719 7.45553 13.7717 6.92653 13.7717C6.39752 13.7717 6.29739 13.1249 6.29739 13.1249C6.29739 13.1249 6.00489 13.5972 5.85531 13.6973L5.96865 15.8635C5.96865 15.8635 5.95476 16.1902 5.77561 16.3589C5.77561 16.3589 5.73598 16.3748 5.72153 16.1507C5.70505 15.9319 5.4988 13.9397 5.4988 13.9397C5.4988 13.9397 4.56926 14.1005 4.56926 12.7229C4.56926 12.7229 4.57975 12.4949 4.60425 12.2262C4.63123 11.9593 4.60166 11.6707 4.51529 11.8835C4.42893 12.097 4.4006 12.2875 4.26558 12.9673C4.12921 13.6446 3.95795 13.835 3.75441 13.835C3.55211 13.835 3.17664 13.213 3.17664 12.1998C3.17788 11.1821 3.37747 11.2974 3.37747 11.2974Z" fill="white"/>
<path id="Vector_5" d="M6.75791 10.2856C6.75791 10.2856 6.7902 10.6644 6.92657 10.6644C7.06554 10.6644 7.08405 10.3976 7.08405 10.3976C7.08405 10.3976 7.13813 10.4471 7.13813 10.6209C7.13813 10.7942 7.00898 10.8627 6.93842 10.8627C6.8673 10.8627 6.73488 10.7843 6.73488 10.7006C6.73488 10.7006 6.67302 10.8482 6.48257 10.8482C6.29348 10.8482 6.21118 10.6209 6.21118 10.4852C6.21118 10.3488 6.2665 10.2329 6.30996 10.2329C6.35275 10.2329 6.37329 10.4299 6.37329 10.4701C6.37329 10.5123 6.40682 10.6454 6.48788 10.6454C6.56893 10.6454 6.64863 10.5742 6.75791 10.2856Z" fill="white"/>
<path id="Vector_6" d="M3.3551 15.6286C3.3551 15.6286 4.0119 14.7069 5.03638 14.4368C5.03638 14.4368 5.21294 14.3643 5.21294 14.55C5.21294 14.7391 5.23733 14.7326 4.99552 14.8037C4.75709 14.8769 4.12265 15.1464 3.3551 15.6286Z" fill="white"/>
<path id="Vector_7" d="M10.9552 14.6273C10.9552 14.5423 10.9485 14.0581 10.8662 14.0528C10.7839 14.0495 10.573 14.2168 10.6126 14.2589C10.6514 14.3031 10.7905 14.9224 10.4669 14.9224C10.1415 14.9224 10.0499 14.1304 10.0499 14.1304C9.87008 14.6351 9.63944 14.9849 9.39571 14.9849C9.1539 14.9849 9.08933 14.672 9.08933 14.5962C9.08933 14.5191 9.146 14.1805 9.01493 14.1805C8.88251 14.1805 8.6144 14.4755 8.6144 14.4755L8.43185 11.8568C8.6144 12.0538 8.72503 11.9042 8.72503 11.7179C8.72503 11.532 8.36073 10.5577 8.27572 10.4095C8.19072 10.2652 8.02206 10.4543 7.88049 10.6671C7.73622 10.8805 7.89765 11.0801 7.89765 11.0801C7.89765 11.3792 7.93457 11.845 8.04068 12.7666C8.14872 13.6896 8.23892 14.72 8.23892 14.72L7.88975 14.9269C7.88975 14.9269 7.66577 14.1659 7.06565 14.1659C6.46609 14.1659 6.47071 14.6732 6.47071 15.4229C6.47071 16.1733 7.62965 15.5955 7.62965 15.5955C7.62965 16.0876 6.9155 17.0825 5.96282 17.0825C5.00821 17.0825 5.24404 15.4124 5.24404 15.4124C4.69065 16.5515 5.03192 17.711 5.94306 17.711C6.85353 17.711 7.68497 16.8651 7.88196 16.4698C8.07895 16.0732 7.99925 15.4611 7.99925 15.4611L8.26737 15.3056C8.26737 15.3056 8.33793 16.2142 8.2081 16.8097C8.08031 17.4012 6.86346 18.2301 5.85151 18.2301C4.84091 18.2301 4.72294 17.2839 4.72294 16.9994C4.72294 16.7121 4.78943 16.3827 4.78943 16.1692C4.78943 15.9558 4.73671 15.8583 4.73671 15.8583C4.44816 16.2405 4.45731 17.1444 4.45731 17.1444C4.45731 18.823 5.27227 18.881 5.77294 18.881C6.27361 18.881 7.07208 18.7809 8.0583 18.0957C9.04327 17.4106 8.66305 15.1462 8.66305 15.1462L8.73677 15.0659C8.73677 15.0659 8.72627 15.3959 9.21836 15.3959C9.71113 15.3959 9.95554 15.025 9.95554 15.025C10.1525 15.3274 10.422 15.3274 10.422 15.3274C10.994 15.3275 10.9552 14.7135 10.9552 14.6273ZM7.0696 15.1846C6.83038 15.1846 6.79155 14.7459 6.98064 14.7459C7.17041 14.7459 7.41222 15.0898 7.41222 15.0898C7.41222 15.0898 7.30938 15.1846 7.0696 15.1846Z" fill="white"/>
<path id="Vector_8" d="M3.80838 16.5386C3.80838 16.5386 3.88209 16.8601 3.75837 17.1974C3.63577 17.5346 3.56137 18.7284 4.17143 17.9458C4.17143 17.9458 4.40071 18.7284 3.80714 18.7284C3.2122 18.7284 3.44679 17.4346 3.60879 16.9945C3.77011 16.5544 3.80838 16.5386 3.80838 16.5386Z" fill="white"/>
<path id="Vector_9" d="M9.84496 16.2881C9.84496 16.2881 9.57617 16.4382 9.57617 16.1325C9.57617 15.8243 9.84034 15.8586 9.84034 15.8586C9.84034 15.8586 10.0689 15.8744 10.0689 16.3171C10.0689 16.7599 9.79755 16.9733 9.79755 16.9733C9.79755 16.9733 9.93268 16.5463 9.84496 16.2881Z" fill="white"/>
<path id="Vector_10" d="M11.1765 10.7021C11.1765 10.6013 11.1415 10.2798 10.8919 10.2798C10.6409 10.2798 10.3912 10.519 10.3912 10.8793C10.3912 11.2391 10.5678 11.3214 10.5678 11.3214C10.0836 12.0948 8.39045 13.0527 9.48741 12.5791C10.5843 12.1027 10.8405 11.5079 10.8405 11.5079C11.2154 11.5258 11.0013 11.2259 11.0013 11.2259C11.0013 11.2259 11.1765 10.801 11.1765 10.7021ZM10.766 11.0045C10.6625 10.9183 10.6908 10.8208 10.7192 10.7509C10.7475 10.6777 10.8839 10.6052 10.8839 10.7416C10.884 10.8833 10.766 11.0045 10.766 11.0045Z" fill="white"/>
<path id="Vector_11" d="M10.8971 12.8839C10.8971 12.8839 10.8687 13.4465 10.4016 13.4465C9.93255 13.4465 10.0215 12.6987 10.5083 12.3482C10.5083 12.3482 10.5972 12.3403 10.4938 12.5301C10.391 12.7192 10.1835 13.1671 10.4721 13.1671C10.7621 13.1659 10.8971 12.8839 10.8971 12.8839Z" fill="white"/>
<path id="Vector_12" d="M13.8361 10.6594C13.8361 10.6594 13.736 10.581 13.8329 10.4598C13.929 10.3378 14.0192 10.3517 14.1108 10.5743C14.2044 10.7957 14.2822 11.2773 14.072 11.8005C14.072 11.7991 14.1477 11.0046 13.8361 10.6594Z" fill="white"/>
<path id="Vector_13" d="M14.4001 13.9914C14.4001 13.9914 14.5174 14.4585 14.6465 14.4585C14.775 14.4585 14.7968 13.9755 14.7968 13.9755C14.7968 13.9755 14.9898 14.3827 15.0919 14.3827C15.1959 14.3827 15.1987 13.834 15.1987 13.834C15.1987 13.834 15.3416 13.9755 15.3416 14.2721C15.3416 14.5692 15.1485 14.6167 15.0853 14.6167C15.0207 14.6167 14.8521 14.4789 14.8521 14.4789C14.8521 14.4789 14.7954 14.7326 14.609 14.7326C14.4258 14.7326 14.2934 14.3656 14.4001 13.9914Z" fill="white"/>
<path id="Vector_14" d="M19.4195 10.431C19.4195 10.431 19.5301 10.1945 19.6579 10.3565C19.7857 10.516 19.9281 10.8448 19.9281 11.2038C19.9281 11.5655 19.7014 11.7329 19.7014 11.7329C19.7014 11.7329 19.8016 11.1122 19.5657 10.8791C19.3326 10.6438 19.3245 10.6207 19.4195 10.431Z" fill="white"/>
<path id="Vector_15" d="M19.5301 12.2658C19.5301 12.2658 19.6091 12.5386 19.6934 12.5386C19.7751 12.5386 19.8449 12.1834 19.8449 12.1834C19.8449 12.1834 19.9253 12.4963 20.0255 12.4963C20.123 12.4963 20.2218 12.0806 20.2218 12.0806C20.2218 12.0806 20.2944 12.1985 20.2944 12.4639C20.2944 12.7281 20.1467 12.7552 20.1058 12.7552C20.0663 12.7552 19.9543 12.7526 19.8793 12.603C19.8793 12.603 19.8067 12.7578 19.6355 12.7578C19.4722 12.7599 19.4563 12.4463 19.5301 12.2658Z" fill="white"/>
<path id="Vector_16" d="M27.059 11.021C27.059 11.021 27.167 10.7845 27.2961 10.9439C27.4253 11.1046 27.5675 11.4347 27.5675 11.7937C27.5675 12.1528 27.3383 12.3214 27.3383 12.3214C27.3383 12.3214 27.4385 11.7008 27.2065 11.4662C26.9693 11.2324 26.9614 11.2107 27.059 11.021Z" fill="white"/>
<path id="Vector_17" d="M16.7525 18.2194C16.7525 18.2194 17.1241 17.8926 17.3178 17.8926C17.5089 17.8926 17.2955 18.2352 17.2955 18.3353C17.2955 18.4355 17.2507 18.6488 17.559 18.4987C17.8685 18.3484 18.1505 18.2352 18.2046 18.2536C18.2573 18.2773 17.7579 18.8386 17.3046 18.8386C16.8514 18.8386 17.0728 18.3551 17.0872 18.2879C17.103 18.2246 17.1188 18.1271 16.8672 18.2443C16.6128 18.3563 16.7525 18.2194 16.7525 18.2194Z" fill="white"/>
<path id="Vector_18" d="M25.346 17.9563C25.346 17.9563 25.6359 17.9326 25.6359 18.0959C25.6359 18.2605 25.3578 18.4568 25.5963 18.4568C25.8387 18.4568 25.8283 18.6427 25.6306 18.7335C25.4303 18.8285 25.0073 19.0379 25.0073 18.7863C25.0073 18.5333 25.3064 18.6202 25.3064 18.4015C25.3064 18.1828 25.085 18.3027 25.085 18.142C25.0852 17.9826 25.346 17.9563 25.346 17.9563Z" fill="white"/>
<path id="Vector_19" d="M24.3156 15.0659C24.3156 15.0659 24.429 14.8822 24.5897 15.0647C24.7505 15.2425 24.8164 15.4501 24.8164 15.6688C24.8164 15.8848 24.6478 16.0377 24.6043 16.0298C24.5581 16.022 24.6095 15.8388 24.6095 15.6919C24.6095 15.5449 24.3843 15.3599 24.3077 15.3005C24.2287 15.2425 24.2682 15.1075 24.3156 15.0659Z" fill="white"/>
<path id="Vector_20" d="M24.6241 14.094C24.6241 14.094 24.7888 13.9683 24.7888 14.2845C24.7888 14.6014 24.4712 14.5151 23.844 14.9874C23.2168 15.4598 23.3961 15.1561 23.4237 15.1099C23.454 15.0644 24.6241 14.094 24.6241 14.094Z" fill="white"/>
<path id="Vector_21" d="M23.4619 13.1027C23.4619 13.1027 23.6569 13.3794 23.7742 13.6297C23.8955 13.878 24.0233 13.9565 24.0286 13.6475C24.0338 13.3372 24.0286 12.8892 24.0286 12.8892C24.0286 12.8892 24.0207 12.6988 24.1366 12.6988C24.2498 12.6988 24.2551 12.8503 24.3317 12.768C24.4054 12.6843 24.3342 12.5683 24.3132 12.4952C24.2895 12.4228 24.2104 12.2376 24.026 12.4076C23.8401 12.5763 23.8573 12.7721 23.881 13.0026C23.9047 13.2319 23.9351 13.6233 23.7862 13.2938C23.6359 12.9651 23.5489 12.6482 23.3487 12.6482C23.1497 12.6482 23.1971 13.2023 23.3249 13.2023C23.454 13.2022 23.4619 13.1027 23.4619 13.1027Z" fill="white"/>
<path id="Vector_22" d="M17.9201 16.0244C17.4167 16.1141 15.018 16.0667 15.018 16.0667C15.8857 15.6596 16.431 15.4678 16.431 15.4678L16.6076 15.558L16.6128 15.4137C16.6128 15.4137 17.5562 15.0481 17.5562 14.5625C17.5562 14.075 16.8921 13.6784 16.4625 13.6784C16.0331 13.6784 15.759 14.2238 15.759 14.5242C15.759 14.8267 15.9 14.9696 15.9 14.9696C15.9 14.9696 14.4013 15.4835 14.2082 15.6284C14.0153 15.7715 13.8979 16.1324 13.8979 16.3407C13.8979 16.5488 14.4295 16.5067 14.4295 16.5067C15.4993 16.5067 15.7037 16.8071 15.7037 16.8071C14.6424 17.213 14.9124 18.0272 14.9124 18.0272C14.1093 17.7715 13.9532 17.3631 13.8359 16.9179C13.718 16.4751 13.6119 15.6121 13.4821 15.1411C13.3536 14.6693 12.909 13.5493 12.8181 13.5493C12.7265 13.5493 12.465 14.0481 12.5716 14.3584C12.6778 14.6693 13.2733 16.6175 13.2733 16.6175C12.6737 17.7665 11.8159 18.3963 11.2586 18.3963C10.7012 18.3963 10.7862 17.885 10.7862 17.885C11.8956 17.3041 12.3891 16.4409 12.3891 15.9086C12.3891 15.3704 12.1354 14.7919 12.1354 14.7919C12.1354 14.7919 12.312 14.8933 12.312 14.7069C12.312 14.5178 11.7876 13.9361 11.7026 13.9361C11.6162 13.9361 11.3745 14.3478 11.3745 14.5303C11.3745 14.7122 11.5781 14.7662 11.5781 14.7662C11.5781 14.7662 12.0234 15.3651 12.0234 15.8638C12.0234 16.3619 10.8889 17.1154 10.8889 17.1154C10.8889 17.1154 11.0062 16.288 10.8566 16.3143C10.7063 16.3407 10.3908 17.4751 10.3908 17.4751C10.3908 17.4751 9.10488 18.2775 9.035 18.3105C8.96455 18.3408 7.7424 18.8718 8.23325 18.8718C8.72601 18.8718 10.3691 18.1286 10.3691 18.1286C10.3843 19.0351 11.2341 19.0576 11.2341 19.0576C12.3838 19.0576 13.4549 17.3579 13.4549 17.3579C14.1491 18.9205 15.5549 18.9629 15.8804 18.9629C16.2071 18.9629 16.2545 18.673 16.2545 18.4701C16.2545 18.2671 15.3058 18.1538 15.3058 17.7058C15.3058 17.2552 17.1873 16.852 17.651 16.765C18.1201 16.6807 18.1333 16.5411 18.1887 16.3921C18.2415 16.2432 18.4233 15.9349 17.9201 16.0244ZM16.3679 14.3656C16.4284 14.3656 16.9239 14.6166 16.9239 14.6733C16.9239 14.7299 16.36 14.8406 16.36 14.8406C16.2677 14.5824 16.3073 14.3656 16.3679 14.3656Z" fill="white"/>
<path id="Vector_23" d="M11.6621 10.8805C11.6621 10.8805 11.5949 11.5591 11.5949 11.9392C11.5949 12.3213 11.8551 12.8392 12.07 12.8392C12.2828 12.8392 12.8578 10.7238 13.3112 10.7238C13.7646 10.7238 13.4041 11.2647 13.4041 12.3372C13.4041 13.4078 14.0761 13.0323 14.1505 13.0014C14.2256 12.9677 14.725 12.6831 14.725 12.0164C14.725 11.3484 14.493 10.6955 14.493 10.5835C14.493 10.4715 14.6953 10.0037 14.8008 10.1084C14.9062 10.2139 15.0933 10.8588 15.0933 11.3081C15.0933 11.7588 15.264 12.9084 15.7963 12.9084C16.3285 12.9084 15.9569 11.6941 15.8964 11.4959C15.8358 11.2942 15.5749 10.7917 15.6737 10.6658C15.775 10.5406 15.899 10.3515 15.9411 10.2692C15.9859 10.1869 16.1321 10.2922 16.2508 10.4227C16.3732 10.5551 16.6156 10.8694 16.6156 11.1587C16.6156 11.4485 16.2573 11.0842 16.2573 11.0842C16.2573 11.0842 16.4918 11.7765 16.4918 12.3833C16.4918 12.9908 16.1716 13.4236 15.7856 13.4236C15.4009 13.4236 14.9463 12.8609 14.9463 12.8609C14.9463 12.8609 14.5642 13.668 13.7796 13.668C12.9942 13.668 13.0575 12.4604 13.0575 12.4604C13.0575 12.4604 13.1221 11.8076 13.0357 11.8371C12.9508 11.8655 12.6971 12.6435 12.6081 12.8945C12.5179 13.1481 12.4283 13.4142 12.176 13.4142C11.9223 13.4142 11.384 12.7923 11.384 12.007C11.384 11.2218 11.6621 10.8805 11.6621 10.8805Z" fill="white"/>
<path id="Vector_24" d="M17.696 11.3297L18.2942 12.2066L18.1979 11.1768C18.1979 11.1768 18.0807 11.0813 18.0807 10.9205C18.0807 10.7611 18.1992 10.3902 18.3626 10.3902C18.526 10.3902 18.9951 11.5451 18.9951 11.8046C18.9951 12.0636 18.7593 11.8731 18.7593 11.8731L18.8054 13.0471C18.8054 13.0471 20.0808 14.9102 20.5289 16.0611C20.9794 17.2101 20.7053 17.1864 20.5842 16.907C20.4616 16.6224 19.5525 14.6967 18.8779 13.8765C18.8779 13.8765 19.0848 16.0347 19.0848 16.5592C19.0848 17.0837 18.9254 18.135 18.6841 18.135C18.4418 18.135 18.7844 17.4157 18.7698 16.9834C18.7527 16.5486 18.4628 13.8021 18.3363 13.0471L17.0306 11.2294C17.0306 11.2294 16.7738 11.2617 16.7738 10.8974C16.7738 10.5345 16.692 10.1865 16.8581 10.1865C17.0241 10.1865 18.0149 11.1083 18.0149 11.2696C18.0149 11.4291 17.696 11.3297 17.696 11.3297Z" fill="white"/>
<path id="Vector_25" d="M21.1059 11.6386C21.1059 11.6386 21.0861 12.3264 21.2298 13.5689C21.3721 14.8101 21.3931 15.71 21.3931 16.2034C21.3931 16.6962 21.5434 19.0732 19.0741 19.0732C19.0741 19.0732 18.9213 19.0784 18.9213 19.0179C18.9213 18.9573 19.0714 18.9046 19.2875 18.8308C19.5049 18.757 21.1506 18.2537 21.0136 16.2957C20.8765 14.3397 20.6498 11.2473 20.5418 11.1472C20.5418 11.1472 20.443 11.0944 20.443 10.9014C20.443 10.7071 20.8212 10.3389 20.9212 10.3389C21.0201 10.3389 21.3376 11.4134 21.3376 11.6209C21.3378 11.8309 21.1059 11.6386 21.1059 11.6386Z" fill="white"/>
<path id="Vector_26" d="M22.301 11.7964C22.301 11.7964 22.7187 15.5095 22.8585 16.4332C22.998 17.3528 22.4894 17.8035 22.3972 17.8035C22.3077 17.8035 22.4184 17.4873 22.4184 16.9839C22.4184 16.4806 21.9257 13.1984 21.8202 12.3295C21.7122 11.4618 21.6014 11.4665 21.6014 10.9428C21.6014 10.4189 21.9309 10.2207 22.019 10.2207C22.1047 10.2207 22.2153 10.5785 22.2153 10.5785C22.2153 10.5785 22.4525 11.2814 22.5803 11.4784C22.7095 11.6768 22.7095 11.763 22.7095 11.8289C22.7082 11.8913 22.4525 11.9249 22.301 11.7964Z" fill="white"/>
<path id="Vector_27" d="M22.0335 16.496C22.0335 16.496 22.0123 18.2564 22.5421 18.2564C22.5421 18.2564 22.687 18.3485 23.0929 17.4262C23.5013 16.5066 23.6937 16.3352 23.886 16.3352C24.0784 16.3352 24.4605 17.0995 24.84 17.0995C25.2208 17.0995 25.3327 16.5105 25.3327 16.0849C25.3327 15.6521 25.1284 12.8699 25.1284 12.8699L23.8965 11.2888C23.8965 11.2888 23.8437 11.236 23.8437 10.8909C23.8437 10.5457 23.7937 10.323 23.9227 10.323C24.0532 10.323 24.2444 10.6115 24.4881 10.8204C24.7305 11.0299 24.8306 11.1044 24.8306 11.2255C24.8306 11.3454 24.6501 11.2697 24.6501 11.2697L25.0532 11.8652L24.9899 11.1524C24.9899 11.1524 24.8767 10.9963 24.8767 10.8316C24.8767 10.6682 25.0742 10.2636 25.1955 10.2636C25.3193 10.2636 25.7013 11.3276 25.7013 11.5344C25.7013 11.7433 25.5353 11.5239 25.5353 11.5239L25.5933 12.6663L26.351 13.7C26.351 13.7 26.0386 11.7381 26.0386 10.8895C26.0386 10.8895 25.9964 10.8505 25.9964 10.7274C25.9964 10.6049 26.2441 10.1997 26.3655 10.1997C26.4866 10.1997 26.82 11.3362 26.82 11.5897C26.82 11.8408 26.6211 11.6668 26.6211 11.6668L26.8239 14.3633C26.8239 14.3633 27.7938 15.7238 27.9597 16.1033C28.1258 16.4828 28.1086 17.0361 28.0493 17.0097C27.9901 16.9833 27.5236 16.0558 26.8951 15.312C26.8951 15.312 27.0757 16.8437 26.7382 17.0836C26.7382 17.0836 26.7053 16.4537 26.7053 16.1321C26.7053 15.8107 26.5524 14.8561 26.5524 14.8561L25.6789 13.6307C25.6789 13.6307 25.8146 15.9557 25.8146 16.5855C25.8146 17.218 25.5075 17.7977 24.941 17.7977C24.3732 17.7977 23.8751 17.0967 23.8751 17.0967C23.8751 17.0967 23.68 17.2284 23.2822 18.0388C22.8791 18.8465 22.7551 18.915 22.5839 18.915C22.4125 18.915 21.7274 18.5067 21.7274 17.8122C21.7225 17.1152 22.0335 16.496 22.0335 16.496Z" fill="white"/>
<path id="Vector_28" d="M27.8153 10.8589C27.8153 10.8589 27.7679 10.8305 27.7679 10.6968C27.7679 10.5643 28.0051 10.2026 28.1104 10.2026C28.2184 10.2026 28.7179 11.2837 28.7179 11.4899C28.7179 11.6981 28.4872 11.459 28.4872 11.459C28.4872 11.459 28.4819 11.656 28.6112 13.2741C28.7403 14.8887 29.4808 17.8152 27.3462 18.6808C25.2143 19.5491 27.7744 18.1116 28.1368 17.2183C28.4966 16.3223 28.2845 15.1549 28.1645 13.9473C28.042 12.7411 27.8153 10.8589 27.8153 10.8589Z" fill="white"/>
<path id="Vector_29" d="M24.9086 23.055H22.6081L22.6014 22.8441C22.6014 22.8441 22.7582 22.6954 22.7582 22.5913C22.7582 22.4858 22.6081 22.2065 22.5 22.2065C22.3945 22.2065 22.2338 22.441 22.2338 22.5755C22.2338 22.7125 22.3972 22.8469 22.3972 22.8469V23.0577L6.42847 23.0076C7.19861 23.7798 7.27176 23.793 10.7271 23.8787C14.1839 23.9644 22.4394 23.7178 22.4394 23.7178V23.9747C22.4394 23.9747 22.2734 24.1025 22.2734 24.2382C22.2734 24.3739 22.4144 24.6032 22.5382 24.6032C22.6634 24.6032 22.7372 24.3318 22.7372 24.3318H23.5529C23.5529 24.3318 23.5384 24.4979 23.7387 24.4979C23.9377 24.4979 23.9456 24.3095 23.9456 24.3095H24.8166C24.8166 24.3095 24.943 24.5058 25.1434 24.5058C25.3423 24.5058 25.5966 24.4095 25.5966 23.702C25.5937 22.9997 24.9086 23.055 24.9086 23.055ZM24.7452 24.1039L23.9415 24.1145C23.9415 24.1145 23.8862 23.9668 23.736 23.9668C23.5858 23.9668 23.5621 24.1382 23.5621 24.1382L22.7767 24.1501C22.7767 24.1501 22.7372 24.0275 22.6292 23.9617L22.616 23.7073L24.7742 23.6546C24.7729 23.6532 24.6583 23.9247 24.7452 24.1039Z" fill="white"/>
</g>
</g>
</g>
</g>
</g>
</g>
</g>
</g>
</g>
<defs>
<clipPath id="clip0_59_745">
<rect width="32" height="32" fill="white" transform="translate(0 -0.00244141)"/>
</clipPath>
</defs>
</svg>
