<svg width="64" height="80" viewBox="0 0 64 80" fill="none" xmlns="http://www.w3.org/2000/svg">
<path id="Vector" d="M32 0C14.3617 0 0.0632019 14.2985 0.0632019 31.9368C0.0632019 53.2807 17.2653 65.1141 32 80C46.7346 65.1141 63.9368 53.2807 63.9368 31.9368C63.9368 14.2985 49.6379 0 32 0ZM32 1.61254C47.0643 1.61254 59.2762 13.8244 59.2762 28.8887C59.2762 34.2686 57.7179 39.2843 55.0293 43.5101V34.7152C53.565 34.233 51.7618 33.5636 49.7929 32.6659V49.5622C48.9953 50.2492 48.1576 50.8912 47.2837 51.4836V31.4345C45.3517 30.4168 43.341 29.1882 41.3927 27.7137V54.5046C40.5741 54.8047 39.7368 55.0665 38.8836 55.2883V25.6341C36.1828 23.1813 33.7438 20.1878 31.9997 16.5524C30.2555 20.1878 27.8165 23.1816 25.1157 25.6341V55.2883C24.2625 55.0665 23.4252 54.8047 22.6066 54.5046V27.7137C20.6583 29.1878 18.6476 30.4168 16.7156 31.4345V51.4836C15.8417 50.8912 15.004 50.2492 14.2064 49.5622V32.6659C12.2375 33.5636 10.4347 34.233 8.96998 34.7152V43.5101C6.2814 39.2843 4.72312 34.2686 4.72312 28.8887C4.72346 13.8244 16.9354 1.61254 32 1.61254Z" fill="#0078A3"/>
</svg>
